# xmcd
#
# Track frame offsets: 
#        150
#        26842
#        49547
#        74350
#        98515
#        124690
#        141315
#        165302
#        196747
#        216030
#
# Disc length: 3313 seconds
#
# Revision: 0
# Processed by: cddbd v1.5.2PL0 Copyright (c) Steve Scherf et al.
# Submitted via: ExactAudioCopy v1.0b3
#
DISCID=830cef0a
DTITLE=Tai Linh, VA - Mua Bui 1
DYEAR=1900
DGENRE=
TTITLE0=Tai Linh, Ngoc Hai - Mua bui 1
TTITLE1=Tai Linh, Chau Tuan - Bay ngay doi mong
TTITLE2=Tai Linh, Hoai son - Ao anh
TTITLE3=Tai Linh, Vu Minh - Nho ve em
TTITLE4=Tai Linh, Thanh Long - Nguoi da nhu mo
TTITLE5=Tai Linh, Dinh Van - Thuong qua Viet Nam
TTITLE6=Tai Linh, Ngoc Hai - Vang tran suy tu
TTITLE7=Tai Linh, Vu Linh - Nguoi mang vinh biet
TTITLE8=Tai Linh, Che Thanh - Sau lan hen cuoi
TTITLE9=Tai Linh, Tran Sang - Nguoi phu keo mo cau
EXTD=
EXTT0=
EXTT1=
EXTT2=
EXTT3=
EXTT4=
EXTT5=
EXTT6=
EXTT7=
EXTT8=
EXTT9=
PLAYORDER=
